<?xml version="1.0" encoding="utf-8"?>
<!-- Generator: Adobe Illustrator 17.1.0, SVG Export Plug-In . SVG Version: 6.00 Build 0)  -->
<!DOCTYPE svg PUBLIC "-//W3C//DTD SVG 1.1//EN" "http://www.w3.org/Graphics/SVG/1.1/DTD/svg11.dtd">
<svg version="1.1" id="Layer_1" xmlns="http://www.w3.org/2000/svg" xmlns:xlink="http://www.w3.org/1999/xlink" x="0px" y="0px"
	 viewBox="0 0 611.153 575.47" enable-background="new 0 0 611.153 575.47" xml:space="preserve">
<g>
	<path opacity="0.7" fill="#E9E9E9" d="M136.305,0C61.026,0,0,61.026,0,136.305s61.026,136.305,136.305,136.305
		s136.305-61.026,136.305-136.305S211.585,0,136.305,0z M136.511,235.19c-54.466,0-98.619-44.153-98.619-98.619
		s44.153-98.619,98.619-98.619s98.619,44.153,98.619,98.619S190.977,235.19,136.511,235.19z"/>
	<g>
		<path fill="#E9E9E9" d="M129.879,105.968c-1.123,0.055-1.828,0.677-2.518,1.29c-0.929,0.826-1.688,1.843-2.871,2.378
			c-0.553,0.25-0.465,0.759-0.286,1.233c0.336,0.894-0.095,1.493-0.772,1.99c-0.216,0.159-0.456,0.347-0.735,0.159
			c-0.289-0.196-0.15-0.458-0.083-0.726c0.409-1.625,0.817-3.251,1.186-4.885c0.118-0.52,0.198-1.075-0.047-1.592
			c-0.164-0.347-0.056-0.579,0.235-0.773c0.263-0.176,0.474-0.397,0.478-0.733c0.011-0.993,0.639-1.042,1.392-0.942
			c1.495,0.198,2.23-0.361,2.564-2.004c-0.703,0.344-1.151,1.003-1.882,1.185c-0.199,0.049-0.417,0.11-0.569-0.065
			c-0.177-0.202-0.038-0.374,0.122-0.515c0.21-0.184,0.356-0.391-0.01-0.525c-0.911-0.333-0.293-0.699-0.011-1
			c0.384-0.409,0.886-0.599,1.46-0.589c0.445,0.007,0.88-0.035,1.233-0.539c-1.021-0.178-1.373-0.676-0.89-1.654
			c0.174-0.353-0.133-0.65-0.533-0.68c-0.427-0.032-0.858-0.007-1.424-0.007c1.07,0.5,1.098,0.642,0.334,1.433
			c-0.774,0.802-1.555,1.584-2.548,2.144c-0.895,0.505-2.58,0.987-3.548,0.846c-0.259-0.038-0.514-0.149-0.749-0.268
			c-0.098-0.05-0.195-0.206-0.199-0.318c-0.008-0.227,0.195-0.264,0.361-0.231c0.48,0.097,0.766-0.15,1.007-0.511
			c0.228-0.342,0.549-0.293,0.903-0.25c1.031,0.125,1.033,0.109,1.855-0.291c-1.006-0.251-1.796-0.803-2.843-0.282
			c-0.759,0.378-1.663,0.132-2.502,0.053c-0.195-0.018-0.412-0.113-0.407-0.366c0.005-0.247,0.223-0.341,0.414-0.376
			c0.225-0.042,0.482-0.071,0.693-0.005c1.261,0.395,2.044-0.386,2.784-1.162c0.437-0.459,0.48-0.984-0.277-1.255
			c-0.355-0.127-0.767-0.237-0.596-0.75c0.173-0.517,0.624-0.457,1.023-0.374c0.566,0.118,1.121,0.263,1.69,0.028
			c0.155-0.064,0.353-0.119,0.28-0.331c-0.033-0.096-0.19-0.178-0.307-0.21c-0.355-0.097-0.747-0.107-1.07-0.263
			c-0.342-0.165-0.615-0.497-0.371-0.911c0.24-0.408,0.6-0.202,0.888-0.04c0.586,0.33,1.166,0.291,1.75,0.033
			c0.203-0.09,0.512-0.142,0.455-0.454c-0.052-0.283-0.333-0.346-0.564-0.296c-0.509,0.109-0.924-0.077-1.342-0.317
			c-0.342-0.197-0.506-0.457-0.309-0.833c0.182-0.348,0.476-0.461,0.852-0.319c0.095,0.036,0.188,0.077,0.283,0.111
			c0.282,0.102,0.64,0.299,0.816-0.037c0.192-0.368-0.236-0.521-0.466-0.663c-0.763-0.473-1.057-0.94-0.136-1.555
			c0.193-0.129,0.376-0.358,0.302-0.602c-0.099-0.329-0.394-0.16-0.608-0.137c-0.812,0.089-1.668-0.291-2.441,0.312
			c-0.286,0.224-0.573-0.042-0.703-0.358c-0.217-0.526-0.562-1.069-0.277-1.638c0.205-0.41,0.577-0.157,0.886-0.021
			c0.183,0.08,0.387,0.171,0.578,0.164c0.584-0.021,1.505,0.28,1.648-0.305c0.169-0.694-0.819-0.544-1.282-0.792
			c-0.325-0.174-0.698-0.255-0.944-0.562c-0.161-0.201-0.284-0.557-0.077-0.62c0.813-0.245,0.756-1.256,1.466-1.56
			c0.116-0.05,0.283-0.167,0.289-0.262c0.139-2.153,1.756-0.899,2.691-1.114c0.458-0.105,1.002,0.338,1.545,0
			c0.172-0.107,0.38,0.037,0.547,0.173c0.193,0.159,0.357,0.542,0.648,0.323c0.324-0.245,0.029-0.567-0.101-0.813
			c-0.389-0.733-0.967-1.301-1.681-1.717c-0.606-0.354-0.813-0.778-0.374-1.404c0.309-0.441,0.396-0.913,0.179-1.437
			c-0.308-0.741,0.13-0.999,0.763-1.047c0.673-0.051,1.35-0.08,2.02,0.059c0.334,0.069,0.665,0.025,0.697-0.364
			c0.03-0.365-0.317-0.377-0.589-0.385c-0.382-0.011-0.78-0.048-1.021-0.356c-0.319-0.409-0.653-0.904,0.161-1.168
			c0.932-0.302,0.937-0.833,0.436-1.532c-0.564-0.785-0.004-1.304,0.529-1.678c0.596-0.419,1.17-0.243,1.448,0.498
			c0.109,0.29,0.167,0.61,0.58,0.574c0.517-0.045,0.55,0.178,0.418,0.615c-0.171,0.566,0.152,0.593,0.54,0.37
			c0.504-0.29,0.875-0.738,1.264-1.161c0.226-0.246,0.451-0.553,0.85-0.39c0.413,0.168,0.32,0.536,0.296,0.874
			c-0.018,0.25-0.199,0.583,0.17,0.699c0.306,0.097,0.49-0.18,0.645-0.395c0.31-0.43,0.791-0.408,1.225-0.569
			c2.172-0.804,4.568-0.308,6.71-1.217c0.213-0.09,0.47-0.191,0.682-0.152c1.324,0.241,2.546,0.139,3.821-0.441
			c0.974-0.442,1.601,0.352,1.273,1.424c-0.092,0.301-0.113,0.583-0.041,0.892c0.305,1.315,0.112,1.946-1.169,2.357
			c-1.346,0.433-2.242,1.37-3.324,2.142c-1.735,1.238-3.344,2.737-5.43,3.439c-0.205,0.069-0.424,0.177-0.389,0.401
			c0.156,1.019-0.511,0.884-1.136,0.858c-0.532-0.022-1.066-0.004-1.606-0.004c0.392,0.594,2.217,1.283,3.294,1.267
			c0.338-0.005,0.841-0.266,0.931,0.276c0.097,0.586-0.497,0.562-0.848,0.642c-1.47,0.338-2.85,0.85-3.989,1.876
			c-0.211,0.189-0.606,0.403-0.379,0.72c0.24,0.335,0.552,0.003,0.791-0.145c0.54-0.333,0.977-0.857,1.669-0.897
			c0.263-0.015,0.567-0.067,0.706,0.25c0.132,0.303-0.066,0.513-0.26,0.707c-0.636,0.636-1.477,0.776-2.306,0.946
			c-0.226,0.046-0.545,0.027-0.578,0.309c-0.042,0.362,0.306,0.411,0.562,0.448c1.139,0.161,2.245,0.027,3.18-0.675
			c1.348-1.012,2.868-1.476,4.517-1.599c0.663-0.05,1.241-0.288,1.769-0.683c0.954-0.713,1.981-0.818,3.052-0.302
			c0.963,0.464,1.937,0.544,2.947,0.181c0.964-0.346,1.938-0.222,2.9-0.009c2.091,0.462,4.173-0.012,6.26-0.022
			c1.603-0.008,2.676,0.978,2.806,2.575c0.071,0.875-0.179,1.642-0.961,2.086c-1.286,0.731-1.778,1.9-1.911,3.267
			c-0.088,0.908-0.374,1.705-0.958,2.403c-0.15,0.18-0.381,0.398-0.372,0.589c0.1,2.013-1.631,2.542-2.82,3.488
			c-0.423,0.337-0.797,0.558-0.595,1.204c0.178,0.572-0.111,1.046-0.541,1.434c-1.067,0.964-2.295,1.55-3.753,1.537
			c-0.809-0.007-1.56,0.151-2.179,0.671c-0.707,0.594-1.467,0.936-2.509,0.654c0.283,0.928,0.847,1.05,1.516,0.809
			c0.984-0.354,1.94-0.786,2.918-1.156c0.4-0.152,0.944-0.423,0.733,0.463c-0.108,0.454,0.256,0.567,0.562,0.71
			c0.214,0.1,0.441,0.178,0.644,0.297c0.381,0.223,1.081,0.252,0.941,0.865c-0.151,0.659-0.829,0.83-1.401,0.689
			c-1.039-0.258-1.911,0.01-2.601,0.725c-2.302,2.387-4.907,2.144-7.646,0.984c-0.18-0.076-0.35-0.22-0.568-0.113
			c0.283,0.917,1.207,1.665,2.117,1.786c1.867,0.247,3.757,0.322,5.596,0.792c1.021,0.261,1.955-0.055,2.732-0.738
			c0.872-0.767,1.717-0.775,2.661-0.127c1.102,0.757,2.37,1.142,3.662,1.423c0.991,0.216,1.729,0.748,2.22,1.617
			c0.751,1.328,1.787,2.365,3.103,3.128c1.16,0.673,1.554,1.642,1.634,3.011c0.128,2.187,0.71,4.323,1.832,6.252
			c0.415,0.713,0.76,1.421,0.765,2.27c0.004,0.755,0.424,1.342,0.891,1.885c0.517,0.6,0.996,1.195,0.861,2.071
			c-0.073,0.474,0.215,0.541,0.555,0.354c0.543-0.299,1.035-0.136,1.554,0.056c0.633,0.234,1.274,0.454,1.923,0.637
			c1.937,0.546,3.336,1.717,4.212,3.527c0.496,1.026,1.173,1.899,2.209,2.433c0.475,0.245,0.614,0.559,0.386,1.07
			c-0.506,1.133-0.264,2.177,0.456,3.139c0.607,0.811,1.226,1.613,1.825,2.43c0.193,0.264,0.473,0.554,0.235,0.908
			c-0.21,0.312-0.579,0.317-0.921,0.297c-0.699-0.039-1.191-0.445-1.597-0.963c-0.51-0.651-1.125-0.809-1.882-0.489
			c-0.745,0.315-1.507,0.334-2.28,0.108c-0.514-0.151-1.013-0.097-1.462,0.188c-0.223,0.142-0.664,0.25-0.34,0.662
			c0.196,0.25,0.389,0.545,0.835,0.326c1.145-0.564,2.449-0.016,3.633-0.48c0.334-0.131,0.701,0.185,0.942,0.489
			c0.771,0.973,1.775,1.642,2.835,2.258c1.95,1.133,2.818,3.029,3.447,5.066c0.168,0.545-0.066,1.045-0.55,1.301
			c-1.288,0.681-1.868,2.024-2.863,2.974c-0.324,0.309-0.198,0.608,0.232,0.586c0.732-0.037,1.161,0.359,1.638,0.829
			c1,0.987,2.442,0.77,3.019-0.524c0.581-1.303,1.459-1.665,2.821-1.541c1.94,0.176,3.906-0.076,5.817,0.584
			c1.628,0.562,2.909,1.609,4.047,2.791c0.919,0.954,1.003,2.314,0.637,3.547c-0.789,2.659-2.227,4.984-4.016,7.093
			c-0.201,0.237-0.48,0.534-0.752,0.45c-0.934-0.29-1.223,0.684-1.895,0.891c-0.231,0.071-0.23,0.317-0.002,0.47
			c0.251,0.17,0.767,0.205,0.445,0.686c-0.266,0.398-0.481,1.041-1.1,0.874c-0.772-0.209-1.23,0.135-1.655,0.653
			c-0.365,0.445-0.849,0.649-1.392,0.759c-0.231,0.047-0.517,0.081-0.461,0.41c0.048,0.288,0.324,0.33,0.56,0.325
			c0.336-0.007,0.671-0.07,1.008-0.09c0.325-0.019,0.637,0.049,0.698,0.428c0.106,0.656-1.357,2.124-1.994,1.939
			c-0.977-0.284-1.815-0.03-2.58,0.519c-0.711,0.511-1.566,0.514-2.584,0.784c0.874,0.601,1.584,0.502,2.325,0.274
			c0.523-0.161,1.397-0.794,0.905,0.612c-0.127,0.363,0.249,0.447,0.489,0.512c2.016,0.545,4.021,1.249,6.139,0.417
			c0.335-0.132,0.728-0.147,1.096-0.154c0.34-0.007,0.816-0.211,0.946,0.304c0.11,0.436,0.039,0.963-0.37,1.191
			c-2.013,1.126-3.35,2.9-4.678,4.7c-0.327,0.443-0.848,0.67-1.384,0.795c-1.788,0.416-3.479,1.061-5.026,2.062
			c-0.303,0.196-0.634,0.219-0.975,0.148c-0.165-0.035-0.329-0.082-0.484-0.149c-2.412-1.036-4.88-1.203-7.427-0.564
			c-1.169,0.293-2.311,0.267-3.415-0.412c-0.749-0.461-1.647-0.291-2.481-0.157c-0.864,0.139-1.653,0.18-2.336-0.545
			c-0.415-0.44-1.024-0.418-1.618-0.375c0.518,1.633,0.335,1.929-1.362,2.462c-0.93,0.292-1.876,0.169-2.817,0.199
			c-0.371,0.012-0.743,0.002-1.115,0.005c-0.551,0.004-1.136,0.014-1.397,0.6c-0.252,0.565,0.543,0.602,0.641,1.108
			c-0.834,0.245-1.6-0.039-2.291-0.375c-1.582-0.769-3.25-0.966-4.973-1.194c-2.43-0.321-4.606,0.234-6.774,1.133
			c-0.377,0.156-0.645,0.058-0.898-0.223c-0.132-0.146-0.278-0.333-0.509-0.234c-0.24,0.103-0.192,0.335-0.158,0.531
			c0.119,0.67-0.029,1.2-0.704,1.504c-0.319,0.144-0.242,0.395-0.179,0.688c0.159,0.741,0.015,1.291-0.944,1.191
			c-0.512-0.053-0.639,0.222-0.354,0.606c0.349,0.47,0.649,0.972,0.17,1.445c-0.51,0.503-1.26,0.345-1.796,0.112
			c-0.635-0.276-1.244-0.476-1.927-0.508c-0.197-0.009-0.469-0.037-0.573-0.165c-0.808-1-1.774-0.824-2.873-0.592
			c-1.276,0.269-2.566,0.569-3.904,0.497c-0.588-0.032-0.973,0.421-1.273,0.891c-0.448,0.7-1.013,1.057-1.876,0.771
			c-0.637-0.211-1.078,0.101-1.26,0.687c-0.161,0.516-0.231,1.004-0.787,1.325c-0.392,0.226-0.003,0.428,0.219,0.56
			c0.503,0.299,0.303,0.616-0.004,0.886c-0.318,0.28-0.725,0.369-0.931-0.084c-0.327-0.715-0.792-1.225-1.528-1.527
			c-0.442-0.181-0.424-0.511-0.035-0.752c1.907-1.182,3.133-2.944,4.185-4.858c0.153-0.278,0.351-0.535,0.7-0.495
			c0.814,0.092,1.14-0.376,1.354-1.058c0.29-0.925,1.014-1.507,1.771-2.022c0.832-0.566,1.239-1.291,1.158-2.309
			c-0.032-0.398,0.027-0.81,0.093-1.208c0.112-0.678,0.466-0.967,1.212-0.837c1.552,0.271,2.865-0.471,3.598-1.95
			c0.164-0.331,0.482-0.327,0.778-0.369c1.135-0.161,2.257-0.3,3.287-0.916c0.639-0.382,1.429-0.196,2.067,0.089
			c1.681,0.751,3.324,0.12,4.976-0.033c0.702-0.065,0.856-0.688,0.938-1.278c0.215-1.549,1.039-2.606,2.521-3.121
			c0.317-0.11,0.548-0.284,0.644-0.588c0.42-1.329,1.443-2.171,2.423-3.054c0.415-0.373,0.976-0.676,0.911-1.358
			c-0.011-0.114-0.222-0.282-0.357-0.3c-0.684-0.091-0.89,0.515-1.217,0.913c-0.889,1.081-1.872,2.038-3.146,2.663
			c-0.526,0.258-1.023,0.443-1.641,0.265c-0.823-0.237-1.338,0.31-1.765,0.903c-0.661,0.919-1.497,1.542-2.638,1.718
			c-1.195,0.185-2.015-0.183-2.633-1.233c-0.328-0.558-0.717-1.043-1.211-1.476c-0.914-0.799-1.925-0.996-3.086-0.761
			c-0.389,0.079-0.867,0.238-0.937-0.513c-0.04-0.431-0.606-0.358-0.946-0.419c-0.806-0.144-1.463-0.363-1.747-1.281
			c-0.22-0.71-0.942-0.596-1.361-0.31c-0.952,0.652-2.301,0.572-2.991,1.746c-0.229,0.39-0.938,0.385-1.243-0.073
			c-0.388-0.581-0.904-0.631-1.488-0.648c-0.823-0.024-1.284-0.392-1.133-1.275c0.09-0.526-0.194-0.822-0.583-1.077
			c-0.489-0.32-0.444-0.6,0.037-0.899c0.715-0.445,1.38-0.977,2.312-0.873c0.486,0.054,0.949-0.135,1.322-0.434
			c1.47-1.176,3.196-1.894,4.869-2.686c1.561-0.739,2.623-1.865,3.22-3.461c0.248-0.663,0.447-1.349,1.037-1.823
			c0.259-0.208,0.243-0.445-0.003-0.688c-0.644-0.635-0.69-1.366-0.232-2.11c0.249-0.404,0.151-0.617-0.243-0.778
			c-0.965-0.395-1.141-1.068-0.685-1.958c0.311-0.605-0.051-0.693-0.532-0.719c-1.668-0.088-3.239,0.117-4.509,1.364
			c-0.275,0.27-0.64,0.654-1.016,0.164c-0.333-0.434-0.008-0.754,0.344-1.001c0.304-0.214,0.609-0.435,0.941-0.596
			c1.166-0.565,1.984-1.402,2.57-2.594c0.866-1.763,2.708-2.033,4.374-2.303c1.559-0.253,3.094-0.591,4.614-0.974
			c0.986-0.248,1.687,0.044,2.442,0.561c0.44,0.301,0.91,1.039,1.456,0.594c0.609-0.497-0.013-1.09-0.303-1.594
			c-0.175-0.304-0.392-0.623-0.003-0.883c0.477-0.318,0.73,0.058,0.976,0.398c0.844,1.17,1.521,1.512,2.502,1.217
			c0.38-0.114,0.876-0.261,0.819-0.751c-0.053-0.461-0.541-0.277-0.848-0.299c-1.572-0.115-2.56-0.968-2.793-2.439
			c-0.184-1.155,0.613-2.385,1.894-2.922c0.223-0.093,0.633-0.026,0.491-0.452c-0.106-0.317-0.441-0.277-0.705-0.24
			c-0.445,0.063-0.895,0.136-1.234-0.234c-0.3-0.327-0.394-0.704-0.054-1.086c0.201-0.226,0.35-0.533,0.597-0.677
			c1.811-1.057,1.567-2.907,1.793-4.571c0.09-0.667-0.081-1.028-0.817-0.553c-0.49,0.316-1.005,0.408-1.493-0.025
			c-0.466-0.414-0.633-0.106-0.764,0.308c-0.061,0.193-0.115,0.39-0.199,0.572c-0.136,0.295-0.347,0.53-0.705,0.438
			c-0.362-0.093-0.429-0.388-0.38-0.723c0.034-0.233,0.104-0.469,0.091-0.7c-0.025-0.436-0.156-0.715-0.704-0.473
			c-0.95,0.419-1.535,0.114-1.545-0.871c-0.007-0.628-0.269-0.993-0.709-1.356c-1.309-1.08-1.503-2.046-0.835-3.573
			c0.486-1.114,1.348-2.032,1.651-3.239c0.05-0.199,0.221-0.379,0.432-0.385c1.092-0.03,1.828-1.01,2.909-1.073
			c0.273-0.016,0.575-0.155,0.551-0.483c-0.03-0.41-0.393-0.406-0.699-0.399c-1.487,0.032-2.971,0.036-4.447-0.187
			c-0.665-0.1-1.104,0.168-1.296,0.835c-0.148,0.515-0.506,0.801-1.049,0.775c-0.79-0.038-1.354,0.301-1.782,0.946
			c-0.391,0.589-0.834,0.673-1.437,0.203c-0.632-0.493-1.485-0.26-2.214-0.513c-0.479-0.166-0.979-0.233-1.356-0.617
			c-0.185-0.188-0.379-0.444-0.686-0.23c-0.258,0.18-0.249,0.474-0.183,0.74c0.12,0.49,0.317,0.964,0.4,1.459
			c0.138,0.822-0.081,0.97-0.875,0.654c-0.446-0.178-0.794-0.489-1.165-0.786c-1.017-0.814-2.026-1.692-3.482-1.523
			c-0.222,0.026-0.382-0.076-0.511-0.258c-0.827-1.16-0.705-2.941,0.294-3.991c0.424-0.445,0.824-0.914,1.032-1.49
			c0.42-1.161,0.988-2.183,1.933-3.034c0.796-0.718,0.336-2.591-0.671-3.162c-1.311-0.744-2.031-2.642-1.513-4.011
			c0.227-0.601,0.717-0.655,1.255-0.55c0.662,0.13,1.316,0.299,1.981,0.409c0.242,0.04,0.626,0.14,0.7-0.2
			c0.075-0.348-0.303-0.386-0.553-0.446c-0.737-0.177-1.387-0.522-1.99-0.968c-0.754-0.559-1.042-1.215-0.488-2.09
			c0.131-0.207,0.371-0.474,0.104-0.726c-0.219-0.206-0.433,0.066-0.654,0.1c-0.839,0.129-1.292,0.446-1.199,1.464
			c0.071,0.772-0.385,1.557-0.262,2.39c0.036,0.243-0.143,0.46-0.413,0.5c-0.294,0.044-0.393-0.194-0.508-0.406
			c-0.843-1.557-0.865-1.556-1.989-0.161c-0.136,0.169-0.212,0.496-0.519,0.363c-0.26-0.113-0.18-0.406-0.193-0.633
			c-0.056-0.985,0.474-1.66,1.205-2.213c0.89-0.673,1.788-1.335,2.547-2.16C129.734,106.318,129.769,106.186,129.879,105.968z"/>
		<path fill="#E9E9E9" d="M78.373,147.32c-0.552-0.19-1.102-0.236-1.481-0.668c-0.666-0.757-0.446-1.514,0.547-1.693
			c0.528-0.095,1.076-0.105,1.615-0.099c0.768,0.009,1.088-0.434,1.208-1.103c0.129-0.718-0.337-0.98-0.913-1.087
			c-1.387-0.256-1.989-1.15-2.092-2.478c-0.013-0.168-0.006-0.356-0.08-0.497c-0.468-0.887-0.863-1.706,0.336-2.405
			c0.814-0.474,1.492-0.932,2.58-0.849c1.612,0.123,2.849,0.635,3.79,1.94c0.394,0.546,0.834,0.719,1.156-0.106
			c0.425-1.087,1.181-1.413,2.342-1.186c1.055,0.206,2.128,0.199,3.071,0.874c0.507,0.363,1.303-0.58,1.162-1.412
			c-0.099-0.582-0.54-1.207,0.068-1.692c0.81-0.646,1.82-0.849,2.827-0.983c0.138-0.018,0.368,0.086,0.438,0.203
			c0.812,1.369,2.44,1.939,3.233,3.323c0.066,0.115,0.161,0.275,0.266,0.295c1.582,0.311,2.718,1.708,4.459,1.706
			c1.812-0.002,2.937-0.87,3.158-2.709c0.112-0.931,0.776-1.34,1.577-1.468c0.787-0.126,1.155,0.465,1.323,1.127
			c0.233,0.916,0.72,1.588,1.607,1.948c0.406,0.165,0.664,0.419,0.685,0.899c0.039,0.918,0.515,1.351,1.455,1.217
			c1.016-0.145,1.374,0.34,1.616,1.317c0.352,1.426,1.332,2.656,1.158,4.281c-0.055,0.512,0.686,0.956,1.102,1.397
			c0.401,0.425,0.562,0.848,0.082,1.316c-0.353,0.344-0.417,0.746-0.294,1.21c0.05,0.189,0.129,0.477,0.038,0.582
			c-0.781,0.895-0.194,1.417,0.477,1.934c0.052,0.04,0.103,0.099,0.123,0.159c0.723,2.188,1.509,4.409,0.219,6.623
			c-0.662,1.136-1.142,2.293-1.281,3.587c-0.142,1.326-0.796,2.336-1.809,3.163c-1.139,0.93-1.138,1.071-0.155,2.128
			c0.178,0.191,0.466,0.372,0.306,0.676c-0.133,0.253-0.434,0.077-0.649,0.13c-1.147,0.286-2.243,0.314-3.245-0.462
			c-0.254-0.196-0.561-0.058-0.868,0.015c-1.317,0.317-2.484,1.063-3.846,1.266c-1.433,0.213-2.85,0.53-4.277,0.786
			c-0.475,0.086-0.72,0.247-0.596,0.81c0.216,0.981-0.353,1.606-1.397,1.383c-0.871-0.186-1.244,0.075-1.654,0.815
			c-0.764,1.379-1.961,1.578-3.206,0.688c-0.191-0.136-0.398-0.265-0.617-0.345c-0.498-0.181-1.065-0.542-1.527-0.131
			c-0.508,0.452,0.011,0.947,0.216,1.362c0.408,0.823,0.196,1.073-0.646,1.55c-1.595,0.902-3.49,0.974-4.988,2.042
			c-0.378,0.269-0.881,0.056-1.282,0.187c-1.456,0.476-2.907,0.766-4.438,0.369c-0.44-0.114-1.071,0.475-1.319,0.041
			c-0.297-0.519,0.448-0.878,0.667-1.345c0.221-0.472,1.106-0.765,0.579-1.421c-0.56-0.697-1.118-0.014-1.698,0.184
			c-1.233,0.421-2.54,0.59-3.898,1.171c0.086-0.881,0.618-1.207,1.117-1.459c0.977-0.493,1.757-1.257,2.676-1.824
			c0.159-0.098,0.425-0.194,0.273-0.449c-0.12-0.203-0.358-0.132-0.556-0.086c-1.154,0.273-2.281,0.628-3.339,1.17
			c-0.903,0.463-1.73,0.635-2.346-0.434c-0.063-0.109-0.199-0.254-0.297-0.251c-1.812,0.057-0.482-0.657-0.308-1.144
			c0.296-0.831,0.907-1.156,1.709-1.372c1.051-0.283,1.902-1.012,2.878-1.475c0.184-0.087,0.361-0.223,0.349-0.454
			c-0.016-0.303-0.268-0.35-0.503-0.405c-0.999-0.238-1.912,0.324-2.895,0.302c-0.875-0.019-1.752,0.086-2.629,0.104
			c-0.497,0.01-0.629-0.198-0.256-0.596c0.585-0.625,1.001-1.24,2.175-0.895c1.029,0.302,2.251,0.116,3.381,0.083
			c0.93-0.027,1.073-0.487,0.58-1.231c-0.61-0.921-0.47-1.574,0.533-2.175c0.532-0.319,1.032-0.595,1.175-1.289
			c0.091-0.442,0.542-0.482,0.916-0.447c1.775,0.163,3.49-0.314,5.235-0.462c0.42-0.036,0.768-0.241,1.107-0.468
			c0.545-0.365,1.14-0.36,1.757-0.254c0.312,0.054,0.653,0.038,0.77-0.313c0.135-0.406-0.223-0.525-0.503-0.618
			c-0.711-0.235-1.355-0.51-1.877-1.119c-0.439-0.512-0.833-0.004-1.015,0.362c-0.908,1.829-2.506,1.82-4.18,1.632
			c-0.23-0.026-0.464-0.105-0.675-0.203c-0.968-0.45-0.884-0.536-0.213-1.3c0.906-1.033,1.579-2.274,1.645-3.691
			c0.073-1.568,0.511-2.119,2.08-2.247c0.504-0.041,1.016-0.009,1.517-0.069c0.952-0.114,1.609-0.813,1.444-1.486
			c-0.184-0.751-1.111-1.221-1.969-0.867c-1.128,0.465-2.312,0.444-3.48,0.571c-0.802,0.087-1.342-0.192-1.54-1.08
			c-0.312-1.405-0.894-1.591-2.02-0.724c-0.21,0.161-0.399,0.434-0.695,0.239c-0.273-0.18-0.039-0.414,0-0.632
			c0.166-0.928-0.521-0.744-1.031-0.76c-0.528-0.017-1.212,0.642-1.504-0.347c-0.278-0.941,0.253-1.478,1.009-1.846
			c0.358-0.174,0.762-0.258,1.15-0.365C77.592,147.417,77.98,147.613,78.373,147.32z"/>
		<path fill="#E9E9E9" d="M120.982,137.159c-1.117-0.123-1.438,0.119-1.662,1.227c-0.345,1.702-1.038,2.095-2.662,1.43
			c-1.068-0.437-2.102-0.334-3.167-0.03c-1.279,0.365-1.493,0.237-1.77-1.065c-0.101-0.473-0.377-0.717-0.803-0.79
			c-0.808-0.139-1.222-0.653-1.43-1.392c-0.018-0.065-0.032-0.132-0.057-0.194c-0.347-0.886-0.993-1.457-1.917-1.625
			c-0.495-0.09-1.788,1.203-1.972,1.86c-0.562,2.004-2.732,2.687-4.622,1.832c-1.774-0.802-2.966-2.226-4.439-3.339
			c-0.779-0.588-0.715-0.93,0.171-1.366c0.878-0.431,1.896-0.526,2.705-1.116c0.322-0.235,0.742-0.461,0.709-0.919
			c-0.036-0.491-0.528-0.425-0.864-0.538c-0.261-0.088-0.557-0.209-0.526-0.529c0.034-0.357,0.379-0.356,0.638-0.336
			c2.173,0.166,3.304-1.054,3.916-2.943c0.451-1.392,1.345-2.131,2.845-2.097c0.777,0.018,1.377-0.34,1.72-1.041
			c0.342-0.699,0.869-0.993,1.636-0.904c0.547,0.064,1.112-0.004,1.585-0.241c1.782-0.89,3.614-0.914,5.507-0.488
			c0.622,0.14,1.194,0.414,1.156,1.065c-0.091,1.57,0.859,2.569,1.755,3.627c0.393,0.463,0.784,0.93,1.145,1.418
			c0.393,0.532,0.363,1.002-0.297,1.313c-0.091,0.043-0.184,0.089-0.265,0.148c-0.436,0.321-1.028,0.685-0.753,1.269
			c0.279,0.593,0.835,0.066,1.253-0.014c0.885-0.167,1.784-0.589,2.552,0.26c0.22,0.243,0.536,0.545,0.26,0.875
			c-0.239,0.286-0.468-0.073-0.689-0.187c-0.332-0.171-0.675-0.396-1.027-0.09c-0.336,0.291-0.262,0.677-0.113,1.03
			c0.265,0.63,0.473,1.264,0.373,1.963c-0.031,0.22,0.068,0.403,0.281,0.485c0.313,0.12,0.724,0.184,0.6,0.649
			c-0.124,0.466-0.511,0.707-0.969,0.784C121.523,137.195,121.25,137.159,120.982,137.159z"/>
		<path fill="#E9E9E9" d="M92.384,131.178c-0.81,0-1.621,0.017-2.431-0.006c-0.468-0.013-0.914-0.166-0.893-0.741
			c0.021-0.576,0.444-0.808,0.966-0.833c0.334-0.016,0.672,0.057,1.009,0.064c0.596,0.013,1.325,0.191,1.137-0.858
			c-0.045-0.253,0.174-0.351,0.375-0.398c0.98-0.23,0.897-0.852,0.559-1.542c-0.333-0.68-0.474-1.283,0.41-1.66
			c0.107-0.045,0.246-0.21,0.236-0.304c-0.14-1.233,0.587-1.262,1.498-1.157c0.27,0.031,0.569-0.178,0.853-0.283
			c1.71-0.627,3.386,0.172,3.975,1.896c0.413,1.209,1.006,1.327,1.879,0.352c0.728-0.812,0.78-1.744,0.456-2.749
			c-0.363-1.128-0.155-1.385,1.023-1.423c0.612-0.02,1.465,0.298,1.283-0.931c-0.053-0.357,0.336-0.202,0.522-0.077
			c0.699,0.469,1.372,0.968,2.129,1.36c0.559,0.289,0.063,0.543-0.177,0.721c-0.867,0.644-1.732,1.293-2.63,1.892
			c-0.833,0.556-1.309,1.316-1.595,2.26c-0.65,2.148-1.733,2.96-3.967,3.043c-0.513,0.019-1.089-0.008-1.258,0.602
			c-0.167,0.601,0.386,0.783,0.781,1.024c0.241,0.147,0.468,0.321,0.421,0.631c-0.05,0.332-0.291,0.546-0.613,0.598
			c-0.906,0.145-1.773,0.369-2.552,0.896c-0.256,0.173-0.595,0.117-0.832-0.143c-0.253-0.277-0.168-0.56,0.016-0.83
			c0.095-0.139,0.214-0.261,0.309-0.401c0.148-0.218,0.386-0.429,0.256-0.723c-0.135-0.306-0.451-0.252-0.713-0.255
			c-0.81-0.009-1.621-0.003-2.431-0.003C92.384,131.191,92.384,131.184,92.384,131.178z"/>
		<path fill="#E9E9E9" d="M116.091,72.694c0.004,0.496-0.18,0.921-0.493,1.296c-0.949,1.139-1.902,2.275-2.846,3.419
			c-0.129,0.156-0.474,0.387-0.086,0.542c1.171,0.468,0.159,0.544-0.058,0.946c-0.763,1.417-1.101,0.923-1.451-0.193
			c-0.057-0.183-0.249-0.213-0.428-0.163c-0.288,0.08-0.433,0.29-0.525,0.564c-0.119,0.35,0.018,0.96-0.567,0.908
			c-0.663-0.059-1.321-0.285-1.871-0.697c-0.189-0.141-0.136-0.394,0.051-0.524c0.798-0.558,0.134-0.691-0.253-0.905
			c-0.361-0.2-0.975-0.289-0.636-0.895c0.282-0.505,0.864-0.651,1.315-0.289c0.94,0.754,1.575-0.405,2.411-0.314
			c0.213,0.023,0.081-0.386-0.005-0.604c-0.459-1.157-0.395-1.339,0.741-1.811c1.254-0.521,2.386-1.256,3.542-1.953
			C115.655,71.586,116.073,71.848,116.091,72.694z"/>
		<path fill="#E9E9E9" d="M116.718,86.67c-0.029,0.165-0.021,0.349-0.092,0.494c-0.725,1.486-0.124,2.576,1.034,3.499
			c0.382,0.304,0.242,0.504-0.121,0.643c-0.569,0.218-1.156,0.392-1.772,0.299c-0.469-0.071-0.966-0.348-0.831-0.831
			c0.338-1.204-0.55-1.602-1.239-2.138c-0.343-0.267-0.756-0.441-1.114-0.692c-0.277-0.194-0.384-0.484-0.169-0.79
			c0.195-0.277,0.455-0.231,0.713-0.073c0.172,0.106,0.336,0.243,0.524,0.299c0.451,0.135,0.997,0.309,1.353-0.001
			c0.321-0.279-0.198-0.651-0.213-1.002c-0.026-0.62-0.724-1.442,0.104-1.806c0.718-0.316,1.077,0.614,1.543,1.054
			C116.724,85.896,116.743,86.287,116.718,86.67z"/>
		<path fill="#E9E9E9" d="M135.968,153.898c-0.69-0.049-1.294-0.364-1.686-1.027c-0.447-0.756-0.323-1.833,0.304-2.193
			c0.79-0.453,1.496-0.219,2.077,0.43c0.313,0.349,0.523,0.84,0.988,0.986c1.175,0.369,0.502,0.76,0.038,1.141
			C137.211,153.627,136.674,153.898,135.968,153.898z"/>
		<path fill="#E9E9E9" d="M124.415,113.978c-0.773,2.034-0.889,4.326-2.377,6.076c-0.247,0.29-0.509,0.775-0.973,0.426
			c-0.385-0.289-0.091-0.692,0.08-1.004c0.465-0.847,0.667-1.746,0.725-2.71c0.081-1.342,0.754-2.364,1.93-3.019
			C124.249,113.497,124.422,113.592,124.415,113.978z"/>
		<path fill="#E9E9E9" d="M132.109,138.803c0.032-0.38,0.136-0.736,0.424-1.002c0.6-0.552,1.086-1.196,1.568-1.849
			c0.282-0.382,0.637-0.811,1.17-0.469c0.501,0.321,0.932,0.855,0.625,1.451c-0.589,1.146-1.345,2.205-2.608,2.71
			C132.537,139.945,132.092,139.594,132.109,138.803z"/>
		<path fill="#E9E9E9" d="M152.069,179.633c0.088,0.032,0.287,0.045,0.376,0.15c0.158,0.187,0.016,0.403-0.12,0.532
			c-0.654,0.621-1.308,1.245-2.002,1.819c-0.393,0.325-0.768,0.102-1.034-0.249c-0.37-0.489-0.278-0.966,0.188-1.319
			C150.216,180.007,151.094,179.786,152.069,179.633z"/>
		<path fill="#E9E9E9" d="M121.05,103.244c-0.159,0.742-0.459,1.381-1.229,1.295c-0.662-0.074-1.567-0.244-1.637-1.055
			c-0.057-0.658,0.568-1.175,1.29-1.143C120.118,102.371,120.815,102.504,121.05,103.244z"/>
		<path fill="#E9E9E9" d="M115.639,114.035c0.122-0.335-0.054-0.58-0.235-0.831c-0.39-0.541-0.073-0.889,0.367-1.147
			c0.49-0.288,0.832-0.065,1.048,0.408c0.125,0.276,0.247,0.554,0.355,0.837c0.397,1.037-0.062,1.607-1.176,1.465
			C115.615,114.718,115.615,114.718,115.639,114.035z"/>
		<path fill="#E9E9E9" d="M118.685,88.241c0.034-0.186,0.073-0.418,0.121-0.649c0.042-0.203,0.11-0.43,0.347-0.437
			c0.226-0.007,0.332,0.205,0.403,0.397c0.281,0.755,0.486,1.539,1.115,2.124c0.203,0.189,0.079,0.441-0.185,0.565
			c-0.435,0.205-0.869,0.233-1.206-0.154C118.838,89.579,118.749,88.935,118.685,88.241z"/>
	</g>
</g>
<g>
	<path opacity="0.7" fill="#E9E9E9" d="M354.248,61.661c-141.884,0-256.905,115.02-256.905,256.905S212.364,575.47,354.248,575.47
		s256.905-115.02,256.905-256.905S496.133,61.661,354.248,61.661z M354.637,504.94c-102.656,0-185.875-83.219-185.875-185.875
		S251.981,133.19,354.637,133.19s185.875,83.219,185.875,185.875S457.293,504.94,354.637,504.94z"/>
	<g>
		<path fill="#E9E9E9" d="M235.908,291.963c-1.761-1.241-3.641-2.351-5.233-3.78c-0.767-0.689-1.239-1.941-1.407-3.007
			c-0.246-1.555-0.871-2.817-1.913-3.916c-2.886-3.042-5.718-6.14-8.714-9.069c-1.501-1.467-2.424-2.914-1.984-5.1
			c0.39-1.939,0.191-3.878-0.682-5.695c-0.656-1.366-0.466-2.589,0.326-3.876c1.309-2.129,2.486-4.34,4.014-7.038
			c0.328,0.716,0.505,1.101,0.663,1.447c0.324-0.187,0.56-0.248,0.672-0.4c1.531-2.069,0.404-4.356,0.459-6.534
			c0.066-2.608-0.289-5.207,0.618-7.781c0.244-0.693-0.263-1.701-0.559-2.515c-0.189-0.519-0.641-0.937-0.949-1.417
			c-1.698-2.651-1.601-2.577,0.35-4.987c1.924-2.377,3.623-4.934,5.436-7.401c0.716-0.974,1.472-1.918,2.475-3.22
			c0.187,1.742,0.317,2.952,0.535,4.98c0.653-1.184,1.079-1.656,1.164-2.183c0.126-0.775,0.047-1.593-0.012-2.388
			c-0.241-3.26-0.25-3.26,3.101-4.146c-0.046-3.642,2.557-5.996,4.583-8.625c0.355-0.461,1.376-0.409,2.309-0.651
			c0.214,1.461,0.383,2.621,0.604,4.128c0.466-4.908,0.61-4.641,4.736-6.875c3.897-2.11,7.609-4.714,8.687-9.545
			c0.174-0.777,0.425-1.537,0.607-2.312c0.57-2.417,1.475-4.563,4.051-5.531c0.515-0.194,0.898-0.714,1.4-0.971
			c4.047-2.069,7.333-4.981,9.923-8.717c0.565-0.815,1.36-1.471,1.801-1.938c3.106,1.138,5.899,2.067,8.613,3.187
			c1.876,0.775,3.487,0.533,5.178-0.473c1.437-0.855,2.875-2.037,4.744-0.724c1.085-2.523,2.92-2.864,5.127-2.999
			c8.637-0.53,17.265-1.233,25.892-1.919c2.321-0.184,4.525-0.087,6.605,1.154c0.977,0.583,1.582,1.236,1.597,2.407
			c0.007,0.565,0.14,1.132,0.252,1.691c0.436,2.182,0.173,4.087-1.984,5.305c-0.497,0.281-0.946,0.645-1.366,0.936
			c0.548,1.839,1.629,2.461,2.993,2.903c4.342,1.408,8.642,2.953,13,4.309c1.789,0.557,2.999,1.397,3.417,3.333
			c0.146,0.678,0.717,1.599,1.3,1.793c4.409,1.469,8.869,2.785,13.434,4.187c1.326-2.047,2.745-3.626,2.454-6.265
			c-0.247-2.237,3.498-4.851,5.786-4.313c6.552,1.539,13.067,3.237,19.629,4.729c3.399,0.773,6.672,2.335,10.325,1.809
			c0.435-0.063,0.964,0.53,1.458,0.824c0.857-2.762,3.321-3.008,5.59-3.507c2.622-0.577,4.541,1.136,6.74,2.3
			c0.923-0.637,1.835-1.267,3.045-2.103c1.457,2.588,2.792,5.07,3.63,7.742c0.309,0.986-0.079,2.248-0.333,3.342
			c-0.465,1.999-1.094,3.96-1.602,5.95c-0.411,1.611-0.232,3.067,0.763,4.545c1.591,2.364,2.967,4.876,4.372,7.361
			c0.728,1.287,1.678,2.595,1.895,3.991c0.33,2.125,1.639,3.2,3.265,4.071c1.815,0.972,2.917,2.249,3.414,4.369
			c0.673,2.873,1.753,5.662,2.818,8.425c0.438,1.137,1.11,2.31,1.99,3.128c3.248,3.022,5.637,6.577,7.137,10.727
			c0.893,2.47,2.542,4.241,4.654,5.727c3.081,2.168,5.994,4.585,9.143,6.645c2.373,1.553,3.904,3.162,2.26,6.143
			c1.93,2.29,4.448,3.69,6.647,5.463c1.133,0.913,2.215,0.114,3.237-0.219c6.619-2.157,13.214-4.387,19.824-6.574
			c0.838-0.277,1.712-0.446,3.008-0.778c-0.301,3.548-0.576,6.778-0.849,10.008c-0.356,4.21-2.858,7.665-4.062,11.57
			c-1.774,5.755-5.755,9.991-9.468,14.472c-5.781,6.978-12.491,13.029-18.885,19.397c-1.861,1.854-3.903,3.533-5.691,5.452
			c-1.226,1.315-2.32,2.815-3.188,4.39c-2.31,4.19-4.465,8.465-6.678,12.698c0.966,1.445,2.018,3.018,3.04,4.546
			c-0.231,0.641-0.329,1.092-0.544,1.477c-1.106,1.976-0.941,3.821,0.136,5.82c1.291,2.398,2.332,4.936,3.387,7.452
			c0.22,0.526,0.032,1.223,0.032,2.499c-0.736-0.825-1.055-1.183-1.382-1.549c-0.172,0.132-0.487,0.26-0.492,0.397
			c-0.017,0.562-0.083,1.187,0.127,1.68c1.338,3.142,0.617,6.556,1.328,9.785c0.176,0.802-0.237,1.753-0.457,2.616
			c-0.195,0.766-0.502,1.502-0.751,2.255c-0.355,1.07,0.848,0.951,1.301,1.753c-2.278,2.57-4.568,5.256-6.989,7.817
			c-0.657,0.695-1.66,1.166-2.592,1.479c-2.269,0.764-4.567,1.477-6.899,2.007c-1.236,0.281-2.028,0.912-2.712,1.878
			c-1.122,1.585-2.124,3.298-3.466,4.674c-1.989,2.039-2.275,4.321-1.787,6.936c0.397,2.127,0.676,4.277,0.958,6.424
			c0.153,1.163,0.023,1.271-1.775,2.014c0.115,1.498,0.235,3.062,0.377,4.92c-0.757,0.424-1.605,0.958-2.503,1.389
			c-2.147,1.029-4.322,1.997-6.475,3.013c-1.082,0.51-1.816,1.239-1.977,2.561c-0.275,2.263-0.808,4.496-1.06,6.761
			c-0.163,1.463-0.736,2.578-1.794,3.559c-4.344,4.032-8.654,8.1-12.988,12.142c-2.582,2.409-5.27,4.712-7.745,7.225
			c-1.41,1.432-2.908,2.012-4.872,1.889c-3.517-0.22-7.042-0.322-10.564-0.436c-0.424-0.014-0.853,0.221-1.285,0.321
			c-3.44,0.794-6.881,1.583-10.515,2.418c-1.864-1.53-4.246-2.72-5.113-5.489c-0.426-1.362-0.856-2.562,0.132-3.865
			c0.867-1.143,0.631-2.288-0.132-3.482c-3.373-5.28-6.073-10.978-10.096-15.859c-2.385-2.894-3.082-6.497-3.652-10.101
			c-0.481-3.043-0.963-6.087-1.47-9.126c-0.378-2.267-1.339-4.287-2.339-6.362c-1.973-4.093-4.902-7.698-6.141-12.174
			c-0.248-0.898-1.135-1.619-1.939-2.707c0.901-0.151,1.461-0.245,2.336-0.391c-0.341-0.743-0.611-1.423-0.955-2.063
			c-1.005-1.873-1.679-3.707-0.423-5.798c0.44-0.732,0.418-1.733,0.645-2.602c0.776-2.975,1.457-5.983,2.426-8.895
			c0.278-0.836,1.34-1.484,2.159-2.048c1.001-0.689,1.492-1.503,1.791-2.718c0.711-2.896,0.478-5.582-0.644-8.349
			c-0.666-1.643-1.037-3.505-1.071-5.278c-0.045-2.314-1.335-4.083-2.047-6.099c-3.245-9.184-9.384-16.65-14.649-24.635
			c-0.563-0.853-1.123-1.708-1.766-2.687c0.536-1.148,1.013-2.292,1.593-3.382c0.907-1.702,1.811-3.251,1.215-5.435
			c-0.315-1.153,0.481-2.632,0.85-3.942c0.337-1.194,0.775-2.359,1.192-3.609c-1.761-1.95-3.453-3.791-5.107-5.666
			c-0.77-0.873-1.725-1.06-2.793-0.916c-2.148,0.29-4.295,0.596-6.439,0.913c-0.778,0.115-1.549,0.281-2.6,0.475
			c-1.454-2.432-2.902-4.855-4.366-7.305c-4.155-1.172-8.408-0.739-12.604-0.94c-0.617-0.029-1.35,0.284-1.869,0.661
			c-2.906,2.11-6.211,3.31-9.584,4.379c-0.324,0.103-0.715,0.166-0.939,0.386c-1.935,1.905-3.872,1.357-5.88,0.123
			c-2.128-1.307-4.274-1.669-6.799-0.788c-3.003,1.048-6.165,1.668-9.287,2.34c-3.499,0.753-6.778,0.244-9.593-2.167
			c-3.8-3.254-7.598-6.51-11.397-9.765c1.404-0.473,1.404-0.473,0.252-2.346C235.99,290.65,235.949,291.306,235.908,291.963z"/>
		<path fill="#E9E9E9" d="M464.083,407.575c0.413,0.04,0.897,0.087,1.69,0.163c-0.367-0.635-0.46-1.056-0.694-1.161
			c-1.567-0.701-2.18-1.899-2.069-3.565c0.038-0.566,0.161-1.249-0.088-1.691c-1.635-2.908,0.661-4.546,2.04-6.448
			c0.283-0.39,0.961-0.485,1.445-0.739c2.001-1.052,4.188-1.866,5.954-3.226c3.064-2.36,5.873-5.052,8.776-7.62
			c1.197-1.059,2.333-2.108,2.49-3.917c0.049-0.567,0.958-1.488,1.453-1.475c0.575,0.015,1.144,0.863,1.677,1.388
			c0.142,0.14,0.176,0.418,0.205,0.64c0.5,3.823,0.991,7.647,1.503,11.619c-0.787,0.069-1.303,0.114-1.489,0.13
			c-1.15,2.628-2.232,5.104-3.318,7.579c-0.229,0.521-0.638,1.025-0.679,1.558c-0.387,5.083-3.506,9.091-5.323,13.606
			c-0.933,2.319-1.988,4.624-3.284,6.754c-1.526,2.508-2.878,5.055-3.791,7.849c-0.562,1.72-1.65,2.899-3.582,3.238
			c-1.327,0.233-2.604,0.75-3.852,1.124c-0.4-0.227-0.714-0.36-0.977-0.56c-4.751-3.626-4.164-2.045-4.1-7.995
			c0.009-0.873-0.08-1.888-0.514-2.599c-1.5-2.454-0.875-4.519,0.828-6.511c1.256-1.468,2.575-2.893,3.709-4.451
			C462.861,410.207,463.356,408.95,464.083,407.575z"/>
	</g>
</g>
</svg>
